<svg xmlns="http://www.w3.org/2000/svg" version="1.1" xmlns:xlink="http://www.w3.org/1999/xlink" xmlns:svgjs="http://svgjs.com/svgjs" width="1440" height="560" preserveAspectRatio="none" viewBox="0 0 1440 560"><g mask="url(&quot;#SvgjsMask1000&quot;)" fill="none"><rect width="1440" height="560" x="0" y="0" fill="#1e3266"></rect><path d="M1488 560L0 560 L0 355.99Q32.28 316.27, 72 348.55Q124.72 281.27, 192 333.99Q222.36 292.35, 264 322.71Q284.65 271.36, 336 292Q381.94 265.94, 408 311.88Q474.74 306.62, 480 373.36Q503.92 325.28, 552 349.21Q594.75 271.96, 672 314.71Q762.19 284.9, 792 375.09Q816.73 279.82, 912 304.55Q992.64 265.19, 1032 345.83Q1057.24 299.06, 1104 324.3Q1124.92 273.22, 1176 294.14Q1229.06 227.2, 1296 280.26Q1345.97 258.24, 1368 308.21Q1460.09 280.3, 1488 372.39z" fill="#182f5d"></path><path d="M1512 560L0 560 L0 361.2Q34.95 324.15, 72 359.11Q134.4 349.51, 144 411.91Q217.71 365.62, 264 439.33Q316.13 371.46, 384 423.59Q422.17 341.75, 504 379.92Q553.05 356.97, 576 406.01Q649.33 359.34, 696 432.66Q715.46 332.12, 816 351.58Q860.58 324.16, 888 368.75Q975.93 336.69, 1008 424.62Q1026.65 371.27, 1080 389.93Q1124.53 314.46, 1200 358.99Q1295.49 334.48, 1320 429.97Q1331.85 369.82, 1392 381.67Q1469.2 338.87, 1512 416.07z" fill="#25467d"></path><path d="M1464 560L0 560 L0 477.39Q40.31 397.69, 120 438Q208.51 406.51, 240 495.03Q267.65 450.68, 312 478.34Q334.95 429.29, 384 452.25Q406.24 402.49, 456 424.73Q511.25 407.98, 528 463.22Q575.02 438.25, 600 485.27Q668.95 434.22, 720 503.17Q748.12 411.28, 840 439.4Q910.48 389.88, 960 460.35Q990.75 419.11, 1032 449.86Q1107.71 405.57, 1152 481.28Q1205.45 462.73, 1224 516.18Q1246.95 419.13, 1344 442.07Q1415.18 393.25, 1464 464.44z" fill="#356cb1"></path><path d="M1464 560L0 560 L0 491.68Q79.46 499.14, 72 578.6Q113.58 500.18, 192 541.76Q257.45 487.21, 312 552.67Q319.61 488.28, 384 495.89Q455.18 447.07, 504 518.25Q585.19 479.44, 624 560.63Q631.71 496.34, 696 504.04Q763.41 451.46, 816 518.87Q906.68 489.55, 936 580.22Q952.89 477.11, 1056 494Q1136.47 502.47, 1128 582.94Q1125.8 508.74, 1200 506.54Q1229.44 463.99, 1272 493.43Q1327.3 476.73, 1344 532.03Q1397.85 465.88, 1464 519.72z" fill="white"></path></g><defs><mask id="SvgjsMask1000"><rect width="1440" height="560" fill="#ffffff"></rect></mask></defs></svg>