<svg xmlns="http://www.w3.org/2000/svg" version="1.1" xmlns:xlink="http://www.w3.org/1999/xlink" xmlns:svgjs="http://svgjs.com/svgjs" width="1440" height="1000" preserveAspectRatio="none" viewBox="0 0 1440 1000"><g mask="url(&quot;#SvgjsMask1033&quot;)" fill="none"><rect width="1440" height="1000" x="0" y="0" fill="#0e2a47"></rect><circle r="14.31" cx="174.16" cy="673.5" filter="url(#SvgjsFilter1034)" fill="rgba(51, 121, 194, 0.58)"></circle><circle r="14.25" cx="443.48" cy="729.53" filter="url(#SvgjsFilter1034)" fill="rgba(51, 121, 194, 0.58)"></circle><circle r="13.3" cx="146.12" cy="918.13" filter="url(#SvgjsFilter1034)" fill="rgba(51, 121, 194, 0.58)"></circle><circle r="14.6" cx="355.45000000000005" cy="388.90000000000003" filter="url(#SvgjsFilter1034)" fill="rgba(51, 121, 194, 0.58)"></circle><circle r="9.59" cx="517.49" cy="784.5300000000001" filter="url(#SvgjsFilter1034)" fill="rgba(51, 121, 194, 0.58)"></circle><circle r="10.83" cx="548.6800000000001" cy="241.72" filter="url(#SvgjsFilter1034)" fill="rgba(51, 121, 194, 0.58)"></circle><circle r="14.115" cx="1231.115" cy="94.175" filter="url(#SvgjsFilter1034)" fill="rgba(51, 121, 194, 0.58)"></circle><circle r="13.135" cx="1285.165" cy="53.475" filter="url(#SvgjsFilter1034)" fill="rgba(51, 121, 194, 0.58)"></circle><circle r="9.665" cx="317.125" cy="162.755" filter="url(#SvgjsFilter1034)" fill="rgba(51, 121, 194, 0.58)"></circle><circle r="15.19" cx="905.1600000000001" cy="404.31" filter="url(#SvgjsFilter1034)" fill="rgba(51, 121, 194, 0.58)"></circle><circle r="15.21" cx="594.63" cy="329.83" filter="url(#SvgjsFilter1034)" fill="rgba(51, 121, 194, 0.58)"></circle><circle r="9.11" cx="393.33000000000004" cy="790.08" filter="url(#SvgjsFilter1034)" fill="rgba(51, 121, 194, 0.58)"></circle><circle r="16.43" cx="546.28" cy="148.29000000000002" filter="url(#SvgjsFilter1034)" fill="rgba(51, 121, 194, 0.58)"></circle><circle r="14.975" cx="1144.7749999999999" cy="596.995" filter="url(#SvgjsFilter1034)" fill="rgba(51, 121, 194, 0.58)"></circle><circle r="10.51" cx="1043.04" cy="950.48" filter="url(#SvgjsFilter1034)" fill="rgba(51, 121, 194, 0.58)"></circle><circle r="15.46" cx="573.0400000000001" cy="543.26" filter="url(#SvgjsFilter1034)" fill="rgba(51, 121, 194, 0.58)"></circle><circle r="15.45" cx="854.22" cy="680.2" filter="url(#SvgjsFilter1034)" fill="rgba(51, 121, 194, 0.58)"></circle><circle r="10.21" cx="1195.24" cy="322.07" filter="url(#SvgjsFilter1034)" fill="rgba(51, 121, 194, 0.58)"></circle><circle r="11.905" cx="619.295" cy="116.215" filter="url(#SvgjsFilter1034)" fill="rgba(51, 121, 194, 0.58)"></circle><circle r="8.965" cx="1276.605" cy="908.6550000000001" filter="url(#SvgjsFilter1034)" fill="rgba(51, 121, 194, 0.58)"></circle><path d="M480.5 653.4L431 640.8 421.8 624.5 438.5 628.8C440.2 629.8 441.7 628.4 442.6 626.8 442.7 625.3 441.7 623.3 440.2 623.2L417.4 616.8 407.9 601.1 426.2 601.2 443.1 618.2C443.1 618.2 443.6 618.5 443.6 618.5 444.8 619.1 446.5 618.7 447.7 617.9 448.6 616.2 448.7 614.8 447.4 613.3L435.1 601.1 453.4 601.3 490 636.8C490 636.8 490.2 637.6 490.2 637.6 491.3 638.3 493.1 637.8 494.2 637 495.7 635.6 495.6 633.3 493.9 632.4L462.3 601.2 484.7 600.7 498.9 614.6C498.9 614.6 498.9 614.6 499.4 614.9 500.6 615.5 502 615.6 503.2 614.8 504.1 613.2 504.5 611.2 503.2 609.7L493.6 600.6 510 600.3C512 600.7 512.9 599 513 597.6 513.4 595.6 512 594.1 509.7 594.3L493.7 594 503 585.3C504 583.6 504.4 581.6 502.7 580.7 501.4 579.2 499.9 579.1 498.4 580.5L484.5 594.6 462.4 594.6 493.9 562.5C495.1 561.7 495 559.4 493.6 557.8 492.5 557.2 490.5 556.8 489 558.2L453.5 594.7 435.2 594.6 447.3 582.3C448.8 581 448.3 579.2 447 577.7 446.2 576.5 443.9 576.7 442.7 577.5L426.3 594.7 407.6 595.1 416.8 579 439.5 572.7C441.2 572.2 442.2 570.6 441.7 568.8 441.8 567.4 439.6 566.1 437.8 566.6L421.2 571.2 430.4 555 479.8 541.9C481.6 541.4 482.5 539.8 482.1 538 481.6 536.3 479.9 535.3 478.2 535.8L434.8 547.2 445.6 528.3 464.8 523.1C466.5 522.6 467.5 520.9 467 519.2 466.5 517.4 464.9 516.5 463.1 516.9L450.3 520 458.3 506.1C459.2 504.4 458.7 502.7 457.1 501.7 455.4 500.8 453.6 501.2 452.7 502.9L444.8 516.8 441.4 504.6C440.9 502.9 439.3 501.9 437.5 502.4S434.8 504.5 435.3 506.3L440.4 524.6 429.3 544.1 417.5 501.3C417 499.6 415.4 498.6 413.6 499.1 411.9 499.6 410.9 501.3 411.4 503L424.9 551.9 415.7 568 411.1 551.4C410.6 549.7 409 548.7 407.2 549.2 405.5 549.7 404.5 551.4 405 553.1L411.2 575.8 402.4 591.4 393.5 576 399.3 552.8C399.4 551.4 398.3 549.3 396.9 549.2 394.9 548.8 393.7 549.6 392.8 551.3L388.4 568 379.5 552.6 392.2 503.1C392.6 501.1 391.8 499.9 390.1 499 388.1 498.6 386.6 500 386 501.1L374.5 544.6 363.5 525.1 368.2 506.4C369.2 504.8 367.8 503.2 366.2 502.3 364.7 502.2 362.7 503.3 362.3 505.2L359.1 517.4 350.6 503.8C350.1 502 348.1 501.6 346.1 502.7 344.9 503.5 344.5 505.4 345.3 506.6L353.4 520.8 340.7 517.3C338.7 516.9 337.2 518.2 337.1 519.7 336.2 521.3 337 522.5 338.1 523.2 338.7 523.5 338.7 523.5 339.2 523.8L357.9 528.5 368.9 548 325.9 536.8C324.2 535.9 322.7 537.2 321.8 538.9 321.7 540.3 322.5 541.5 323.6 542.2 324.2 542.5 324.2 542.5 324.2 542.5L373.9 556 382.8 571.4 366.1 567.1C364.2 566.7 363 567.5 362 569.1 361.9 570.6 362.4 572.3 363.5 573 364.1 573.3 364.1 573.3 364.6 573.6L387.8 579.4 396.8 594.8 379 595 361.8 578.6C360.4 577.1 358.1 577.2 357 578 356 579.7 355.6 581.7 357.3 582.6L369.5 594.8 351.4 595.5 314.7 559.2C313.9 558 311.6 558.1 310.4 558.9 309.4 560.6 309.1 562.6 310.4 564.1L342 595.3 319.9 595.3 306.3 581.6C305 580.1 302.7 580.3 301.7 582 300.5 582.8 300.1 584.7 301.5 586.3L311 595.4 294.7 595.6C293.2 595.6 291.7 596.9 291.3 598.9 291.6 599.8 292.4 601 293.5 601.6 293.5 601.6 294.1 601.9 294.6 602.2L311 602 301.8 611.5C300.7 612.3 300.8 614.6 301.6 615.8 302.2 616.1 302.2 616.1 302.2 616.1 303.8 617 305.6 616.6 306.2 615.5L319.8 601.9 342.2 601.3 310.7 633.5C309.8 635.1 309.7 636.6 311 638.1 311 638.1 311.6 638.4 311.6 638.4 312.7 639 314.1 639.1 315.6 637.7L351.7 601.6 369.5 601.4 357.3 613.6C356.4 615.3 356 617.3 357.7 618.2 357.4 618.8 357.9 619.1 357.9 619.1 359 619.7 360.8 619.2 362 618.4L378.4 601.3 396.7 601.4 387.8 617 365.1 623.2C363.4 623.7 362.1 625.9 362.6 627.6 363.4 628.8 365.1 629.8 366.5 629.9L383.4 624.7 374.2 640.9 325.4 654.3C323.6 654.8 322.7 656.5 323.1 658.2 323.6 660 325.3 660.9 327 660.4L369.8 648.7 358.7 668.1 340.4 673.2C338.6 673.7 337.7 675.3 338.2 677.1S340.3 679.8 342.1 679.3L354.3 675.9 346.4 689.8C345.4 691.5 345.9 693.3 347.6 694.2 349.2 695.2 351 694.7 351.9 693L359.9 679.1 363.8 691.6C364 692.5 364.2 693.4 364.8 693.7 365.4 694 366.8 694.1 367.7 693.8 369.4 693.4 370.4 691.7 369.9 689.9L364.3 671.3 375.4 651.8 387.7 694.9C387.9 695.8 388.1 696.7 388.7 697 389.3 697.3 390.7 697.4 391.6 697.1 393.3 696.6 394.3 695 393.8 693.2L379.8 644 389 627.9 393.2 645.1C393.4 645.9 394.6 646.6 395.1 646.9 395.7 647.2 396.2 647.5 397.1 647.3 398.8 646.8 400.1 644.6 399.3 643.4L393.4 620.1 402.3 604.5 411.7 620.2 405.3 643.1C405.3 644.6 405.8 646.3 406.9 646.9 407.4 647.2 407.4 647.2 407.7 646.7 409.4 647.6 411.5 646.6 411.9 644.6L416.2 627.9 425.7 643.6 412.1 693.4C412 694.8 412.8 696 413.9 696.6 414.5 696.9 414.5 696.9 414.5 696.9 416.5 697.3 418.2 696.8 418.6 694.9L430.1 651.3 441.1 670.8 436.4 689.5C436 691.5 436.8 692.7 437.9 693.3 437.9 693.3 438.5 693.6 438.5 693.6 440.5 694 442 692.7 442.6 691.5L445.6 678.5 453.7 692.7C454.3 693 454.8 693.4 455.4 693.7 455.9 694 457.4 694.1 458.2 693.8 459.7 692.5 460.7 690.8 459.3 689.3L451.2 675.1 463.9 678.6C465.9 679 467.4 677.7 468 676.6 468.4 674.6 467.1 673.1 465.4 672.1L446.8 667.4 435.4 648.5 478.4 659.6C480.4 660 482.5 659 482.5 657.6 482.9 655.6 482.4 653.8 480.5 653.4Z" fill="rgba(51, 121, 194, 0.58)"></path><path d="M615.9 624.2L619.2 657.1 613.6 664.3 593.5 661.2 590 652.5 603.6 622.3C603.7 621.9 603.7 621.9 603.7 621.5 603.8 620.7 603.6 619.8 602.4 619.3 601.3 619.1 600.4 619.4 599.8 620.5L588 647 582.8 633.6 587.9 621.9C587.9 621.9 587.9 621.5 587.9 621.5 588.1 620.7 587.8 619.8 586.7 619.2 585.9 618.7 584.6 619.3 584 620.4L580.4 628 576.7 618.1C576.5 617.2 575.3 616.7 574.1 616.9S572.6 618.7 572.8 619.9L576.6 629.4 569 626.2C567.9 625.6 566.5 626.2 566 627.3 565.8 628.1 566.1 629.4 567.2 630L578.9 635 584.1 648.8 557.6 637C556.5 636.4 555.2 637 554.6 637.7 554.4 638.9 554.7 640.1 555.8 640.7L586.1 654 589.6 663 577 678.5 567.5 677 547.8 650.4C547.1 649.5 545.9 649.3 545 650S543.9 651.8 544.6 652.7L562 676.1 547.4 673.8 540 663.8C539.4 662.9 538.2 662.7 536.9 663.3S535.8 665.1 536.4 666.1L541.8 673 531.2 671.3C530 671.1 529 672.2 528.8 673.4 528.6 674.5 529.3 675.5 530.5 675.6L541.2 677.3 534.3 682.3C533 682.9 532.8 684.1 533.9 685.1 534.5 686 535.7 686.2 536.6 685.5L546.7 678.2 561.3 680.5 537.6 697.4C536.7 698.1 536.5 699.7 537.1 700.6S539 701.7 539.9 701L566.9 681.3 576.3 682.8 583.5 701.7 577.5 708.9 544.6 712.3C543.4 712.5 542.8 713.6 542.6 714.8 542.8 716 543.9 716.6 545.1 716.8L574 713.6 564.9 724.7 552.2 726C550.9 726.2 550.4 727.3 550.2 728.5 550.5 729.4 551.5 730.3 552.8 730.1L561 729.4 554.4 737.7C553.9 738.4 554.1 739.7 554.8 740.6 555.9 741.1 557.1 740.9 557.7 740.2L564.2 731.9 565.3 740.6C565.6 741.4 566.6 742.4 567.5 742.1 568.7 742.3 569.2 741.6 569.4 740.4 569.4 740.4 569.4 740 569.4 740L568.2 727.3 577.2 716.1 580.4 745C580.6 746.2 581.3 747.1 582.5 746.9 583.8 746.7 584.3 746 584.4 745.2 584.5 744.8 584.5 744.8 584.5 744.8L580.8 711.4 586.8 704.3 606.9 707.4 610 716 596.7 746.7C596.2 747.4 596.8 748.7 597.5 749.3 598.7 749.8 600 749.2 600.6 748.1L612.4 721.6 617.6 735 612.5 746.7C611.9 747.9 612.1 749.1 613.3 749.3 614.5 749.9 615.8 749.3 616.3 748.5L619.6 740.6 623.3 750.4C623.9 751.4 625.1 751.9 626.3 751.7 626.8 751.4 627.3 750.7 627.4 749.9 627.5 749.5 627.5 749.5 627.1 749L623.4 739.1 631.4 742.4C632.5 743 633.4 742.3 634 741.6 634 741.2 634 741.2 634.1 740.8 634.2 740 633.9 739.2 633.2 738.6L621.5 733.6 616.3 720.2 642.7 732C643.9 732.2 645.2 732 645.4 730.8 645.8 730.5 645.8 730.5 645.9 730.1 646 729.3 645.3 728.4 644.6 727.9L613.9 714.6 610.8 706 623.4 690.1 632.5 691.6 652.1 718.5C652.8 719.4 654.4 719.7 655.3 719S656.5 716.8 655.8 715.8L638.4 692.5 652.6 694.7 660.4 704.8C661 705.7 662.2 705.9 663.1 705.3 664 704.6 664.2 703.4 663.5 702.5L658.5 695.6 669.2 697.3C670 697.4 671.3 696.8 671.5 695.6 671.7 694.4 670.7 693.1 669.9 692.9L659.2 691.3 666.1 686.3C666.5 685.9 667 685.6 667.1 685.2 667.2 684.4 666.8 684 666.5 683.5 665.8 682.6 664.7 682.4 663.7 683.1L653.3 690.4 639.1 688.1 662.8 671.2C663.2 670.9 663.3 670.5 663.4 669.7 663.5 669.3 663.5 668.9 663.2 668.4 662.5 667.5 660.9 667.3 660 667.9L633.1 687.2 624 685.8 616.8 667.3 622.5 659.6 655.8 656.3C656.6 656.1 657.5 655.4 657.7 654.6 657.7 654.2 657.7 654.2 657.3 654.1 657.5 653 656.5 652 655.2 652.2L626.4 655.4 635.5 643.9 648.2 642.6C649.1 642.3 649.6 641.6 649.7 640.8 649.7 640.8 649.8 640.4 649.8 640.4 649.9 639.2 648.9 638.3 647.6 638.5L639 639.5 645.5 631.3C646 630.9 646 630.5 646.1 630.1 646.2 629.3 645.9 628.5 645.6 628.4 644.5 627.4 643.2 627.7 642.3 628.3L635.8 636.6 635 628.4C634.8 627.2 633.8 626.2 632.5 626.4 631.7 626.7 630.7 627.7 631 628.6L632.2 641.3 623.2 652.5 620 623.6C619.8 622.4 618.7 621.8 617.5 621.6 616.6 621.9 615.6 622.9 615.9 624.2ZM595.2 665.9L610.6 668.3 613 668.7 613.8 670.8 619.3 685.1 620.1 687.6 618.6 689.4 609.1 701.3 607.6 703.1 605.2 702.7 589.8 700.3 587.4 699.9 586.6 697.8 581.1 683.5 580.2 681.4 581.8 679.2 591.3 667.3 592.8 665.5 595.2 665.9Z" fill="rgba(51, 121, 194, 0.58)"></path><path d="M1250.5 1012.4L1199.3 998.1 1176.4 956.7 1223.7 957.5 1260.4 995.9C1260.4 995.9 1260.9 996.2 1260.9 996.2 1262 996.9 1263.8 996.4 1265 995.7 1266.5 994.3 1266.4 992 1264.8 991.1L1232.6 957.6 1255.5 957.9 1269.9 972.5C1269.9 972.5 1270.5 972.8 1270.5 972.8 1271.6 973.5 1273.3 973.1 1274.5 972.3 1276.1 971 1275.9 968.7 1274.3 967.7L1264.7 957.5 1281.6 957.9C1283.1 958 1284.9 956.1 1285 954.7 1285.5 952.7 1283.3 951.4 1281.9 951.3L1265 950.9 1275.2 941.3C1276.7 940 1276.6 937.7 1274.9 936.7 1273.6 935.2 1271.3 935.3 1270.3 936.9L1255.7 951.3 1233.1 950.5 1266.6 918.3C1268.1 917 1268 914.7 1266.4 913.7 1265.1 912.1 1262.7 912.2 1261.8 913.9L1223.4 950.6 1176.1 949.8 1200.7 908.7 1252.5 895.7C1254.3 895.2 1255.3 893.6 1254.8 891.8 1254.4 890.1 1252.8 889.1 1251 889.5L1205.3 901 1217.2 881.2 1236.5 876.4C1238.3 875.9 1239.2 874.3 1238.8 872.5 1238.4 870.8 1236.7 869.8 1235 870.2L1221.8 873.5 1231 858.2C1232.5 856.8 1231.6 854.7 1229.9 853.8 1228.3 852.8 1226.5 853.2 1225.5 854.9L1217 869.1 1213.7 856C1213.2 854.2 1211.6 853.2 1209.8 853.7S1207.1 855.7 1207.5 857.5L1212.4 876.8 1200.5 896.6 1189.1 850.9C1188.6 849.2 1187 848.2 1185.2 848.6 1183.5 849.1 1182.5 850.7 1182.9 852.5L1195.9 904.3 1171.6 944.9 1148.6 903.5 1162.7 853.8C1163.2 851.8 1161.9 850.3 1160.2 849.3 1158.2 848.9 1156.7 850.2 1155.7 851.8L1143.1 896.5 1132 876.4 1137.8 856.8C1138.3 854.8 1136.9 853.3 1135.3 852.3 1133.3 851.8 1131.8 853.1 1131.1 854.2L1127.5 867.7 1119.2 853C1118.4 851.8 1116.2 850.5 1114.7 851.8 1113.1 853.2 1112.1 854.8 1113.5 856.3L1121.8 871 1108.3 867.4C1106.3 867 1104.8 868.3 1104.1 869.4 1104 870.8 1104.5 872.6 1105.6 873.2 1105.6 873.2 1106.1 873.6 1106.1 873.6L1125.8 879.4 1136.8 899.5 1092.2 886.9C1090.2 886.4 1088.7 887.7 1088 888.8 1087.9 890.3 1088.3 892 1089.4 892.7 1089.4 892.7 1090 893 1090 893L1141.1 907.3 1164.1 948.6 1116.8 947.9 1080.1 909.5C1078.8 907.9 1076.5 908 1075.5 909.7 1074 911 1074.1 913.3 1075.7 914.3L1107.9 947.8 1085 947.4 1070.6 932.9C1069.3 931.3 1066.9 931.4 1066 933.1 1064.4 934.4 1064.5 936.7 1066.2 937.7L1075.7 947.9 1058.8 947.5C1057.4 947.3 1055.5 949.2 1055.4 950.6 1055.3 952.1 1056.1 953.3 1057.2 953.9 1057.7 954.3 1058.3 954.6 1059.2 954.4L1076.1 954.8 1065.9 964.4C1064.3 965.7 1064.4 968 1066.1 969 1066.1 969 1066.6 969.3 1066.6 969.3 1067.7 970 1069.5 969.5 1070.7 968.7L1085.3 954.4 1108.2 954.7 1074.8 986.9C1073.2 988.2 1073.3 990.5 1075 991.5 1075 991.5 1075.5 991.8 1075.5 991.8 1076.6 992.4 1078.4 992 1079.6 991.2L1118 954.6 1165.3 955.3 1141 995.9 1089.1 1008.9C1087.4 1009.3 1086.4 1011 1086.8 1012.8 1087.3 1014.5 1088.9 1015.5 1090.7 1015.1L1136 1004.2 1124.2 1023.9 1104.9 1028.8C1103.1 1029.2 1102.1 1030.9 1102.6 1032.6S1104.6 1035.4 1106.4 1034.9L1119.6 1031.6 1111 1045.9C1110 1047.5 1110.5 1049.3 1112.1 1050.3 1113.8 1051.3 1115.5 1050.8 1116.5 1049.2L1125.1 1034.9 1128.4 1048.1C1128.6 1049 1128.8 1049.8 1129.9 1050.5S1131.9 1050.9 1132.7 1050.7C1134.5 1050.3 1135.5 1048.6 1135 1046.9L1130.2 1027.6 1142.1 1007.8 1153.5 1053.4C1153.7 1054.3 1153.9 1055.2 1155 1055.9 1155.6 1056.2 1157 1056.3 1157.9 1056.1 1159.6 1055.6 1160.6 1054 1160.2 1052.2L1147.2 1000.4 1171.6 959.8 1194.5 1001.2 1180.3 1052.3C1180.2 1053.8 1180.6 1055.5 1181.7 1056.2 1181.7 1056.2 1182.2 1056.5 1182.2 1056.5 1184.2 1056.9 1185.8 1055.6 1186.4 1054.5L1199 1009.9 1210.1 1029.9 1204.3 1049.6C1204.2 1051 1204.6 1052.8 1205.7 1053.4 1205.7 1053.4 1206.3 1053.8 1206.3 1053.8 1208.3 1054.2 1209.8 1052.9 1210.5 1051.8L1214.1 1038.3 1222.4 1053C1223 1053.3 1223.2 1054.2 1223.7 1054.5 1224.8 1055.2 1226.3 1055.3 1227.5 1054.5 1229 1053.2 1230 1051.5 1228.7 1050L1220.3 1035.3 1233.8 1038.9C1235.8 1039.4 1237.3 1038 1238 1036.9 1238.4 1035 1237.1 1033.4 1236 1032.8L1216.4 1027 1205.3 1006.9 1250 1019.5C1251.9 1019.9 1253.5 1018.6 1254.1 1017.5 1253.5 1014.9 1252.5 1012.8 1250.5 1012.4Z" fill="rgba(51, 121, 194, 0.58)"></path><path d="M849.6 226.6L857.7 247.5 844.2 245.9C842.8 245.6 841.2 246.7 840.5 248.7 840.7 250.4 841.8 252.1 843.6 251.9L860.3 254.4 867.3 270.4 832.5 265.1C830.7 265.4 829 266.5 828.7 267.9 828.5 270.2 829.6 271.9 831.4 271.6L870 277.4 879.9 302.2 850.2 294.4 864.9 321.3 838.5 317.7 823.6 281.7C824 281.2 823.5 280.8 823 280.4 821.9 279.7 820.5 279.4 819.2 280 818 280.6 817.3 282.5 817.5 284.3L831.1 316.8 813.8 313.9 807.4 298.3C807.3 297.4 806.8 297 806.2 296.6 805.7 296.2 804.3 296 803 296.6 801.8 297.2 801.1 299.1 801.7 300.4L806.4 313 784.2 310.3C782.3 309.6 781.1 311.1 780.5 313 780.2 314.4 781.3 316.1 783.6 316.3L805.4 319.5 797.1 330.1C796 331.6 796.7 333.8 797.7 334.6 799.2 335.8 801 335.6 802.2 334.1L812.8 320.4 830.1 323.3 808.8 350.6C807.6 352.1 807.8 353.9 809.3 355.1 810.3 355.9 812.6 356 813.8 354.5L837.5 324.3 863.9 327.8 842.9 349.6 873 350.4 856.5 371.6 818.5 366.3C816.2 366.1 815 367.6 814.7 369 814.4 370.4 815.5 372.1 817.4 372.8L852.2 377.2 841.5 390.8 824.4 388.8C822.5 388.1 820.8 389.2 820.7 391.5 820.4 392.9 821.5 394.6 823.8 394.8L836.8 396.8 823 414.5C821.8 416 822.1 417.8 823.6 419S826.9 419.9 828.1 418.4L841.9 400.8 847 412.9C847.7 415.1 849.6 415.8 850.9 415.2 853.1 414.4 853.8 412.5 852.7 410.8L846.6 394.7 857.2 381.1 869.9 413.7C871 415.4 872.9 416.1 874.2 415.5 876.4 414.8 877.1 412.9 876 411.2L861.5 375.6 878.1 354.4 886.2 383.5 902.2 357.8 912.1 382.6 888.5 412.8C887.3 414.3 888 416.5 889 417.3 890.5 418.5 892.3 418.3 893.5 416.8L915.2 389 921.8 405.5 911.1 419.2C910 420.7 910.2 422.5 911.7 423.6 912.7 424.4 915 424.6 916.2 423.1L924.5 412.5 932.9 432.9C933.6 435.1 935.5 435.8 937.2 434.6 938.5 434 939.7 432.5 938.6 430.8L930.5 409.9 943.9 411.5C945.3 411.8 947 410.6 947.3 409.2 947.6 407.8 947 406.5 946.5 406.1 946 405.8 945.5 405.4 944.6 405.5L927.8 403 920.9 387 955.7 392.2C957.5 392 959.2 390.9 959.5 389.5 959.8 388.1 959.1 386.8 958.1 386 957.6 385.6 957.6 385.6 956.7 385.7L918.2 380 908.3 355.2 938 363 923.3 336 949.7 339.6 964.6 375.6C965.2 376.9 966.7 378.1 968.9 377.4 970.2 376.8 970.9 374.9 970.7 373.1L957.1 340.5 974.3 343.4 980.8 359.1C981 360.9 982.9 361.5 985.1 360.8 986.4 360.2 987.1 358.3 986.9 356.5L981.7 344.4 1004 347.1C1005.9 347.8 1007 346.3 1007.7 344.4 1007.6 343.5 1007 342.2 1006.5 341.8 1006 341.4 1005.5 341 1004.6 341.1L982.8 337.9 991 327.3C992.2 325.7 991.5 323.6 990.5 322.8L990.5 322.8C989 321.6 987.2 321.8 986 323.3L975.3 336.9 958.1 334 979.4 306.8C980.6 305.3 980.4 303.5 978.8 302.3S975.5 301.4 974.4 302.9L950.7 333.1 924.3 329.5 945.3 307.8 915.1 307 931.7 285.8 969.7 291.1C972 291.3 973.2 289.8 973.5 288.4 973.8 287 972.6 285.3 970.7 284.6L936.4 279.7 946.6 266.6 963.8 268.6C965.7 269.3 967.3 268.2 967.5 265.9 967.8 264.5 966.7 262.8 964.8 262.1L951.4 260.6 965.2 242.9C966.3 241.4 966.1 239.6 964.6 238.4S961.3 237.4 960.1 239L946.3 256.6 941.2 244.5C941.1 243.6 940.6 243.2 940.1 242.8 939.1 242 938.2 242.1 937.3 242.2 935.1 242.9 934.4 244.9 935.5 246.5L941.6 262.7 931 276.3 918.3 243.6C917.8 243.3 917.3 242.9 916.8 242.5 915.8 241.7 914.9 241.8 914 241.9 911.8 242.6 911.1 244.5 912.2 246.2L926.6 281.8 910.1 303 901.9 273.9 885.9 299.6 876.1 274.8 899.7 244.6C900.9 243 900.2 240.9 899.1 240.1 897.6 238.9 895.8 239.1 894.7 240.6L873.4 267.9 866.4 251.8 877 238.2C878.2 236.7 878 234.9 876.5 233.7S873.2 232.8 872 234.3L863.7 244.9 855.3 224.5C855.2 223.6 854.7 223.2 854.2 222.8 853.7 222.4 852.3 222.1 851 222.7 849.7 223.4 848.5 224.9 849.6 226.6ZM899.7 289.2L906.3 313.1 931 313.7 913.6 331.8 925.4 353.1 901.4 347.4 888.5 368.1 881.9 344.3 857.2 343.7 874.2 326.1 862.8 304.3 886.4 310.5 899.7 289.2Z" fill="rgba(51, 121, 194, 0.58)"></path><path d="M1047.4 552.7L1037.1 602.7 1021.3 612.6 1024.8 595.8C1025.7 594.1 1024.3 592.6 1022.6 591.7 1021.1 591.7 1019.1 592.9 1019.1 594.3L1013.8 617.5 998.6 627.7 997.8 609.4 1014 591.7C1014 591.7 1014.3 591.1 1014.3 591.1 1014.8 590 1014.3 588.3 1013.4 587.1 1011.7 586.2 1010.3 586.2 1008.8 587.7L997.3 600.5 996.6 582.2 1030.3 544C1030.3 544 1031.1 543.7 1031.1 543.7 1031.7 542.6 1031.1 540.8 1030.3 539.7 1028.9 538.3 1026.6 538.5 1025.7 540.2L996 573.3 994.4 550.9 1007.7 536.1C1007.7 536.1 1007.7 536.1 1008 535.6 1008.6 534.4 1008.6 533 1007.7 531.8 1006 531 1004 530.7 1002.6 532.1L993.9 542.1 992.9 525.8C993.2 523.8 991.5 522.9 990 522.9 988 522.6 986.6 524 986.9 526.3L987.3 542.3 978.2 533.4C976.5 532.5 974.5 532.2 973.6 533.9 972.2 535.4 972.2 536.8 973.6 538.2L988.4 551.5 989.5 573.5 955.8 543.6C955 542.4 952.7 542.7 951.3 544.1 950.7 545.3 950.4 547.3 951.8 548.7L990 582.4 990.7 600.7 977.9 589.2C976.5 587.8 974.8 588.3 973.3 589.8 972.2 590.6 972.5 592.9 973.3 594.1L991.3 609.6 992.6 628.2 976 619.8 968.7 597.5C968.2 595.7 966.4 594.9 964.7 595.4 963.3 595.4 962.1 597.7 962.7 599.4L968 615.8 951.5 607.4 936 558.6C935.5 556.9 933.7 556.1 932 556.6 930.3 557.2 929.4 558.9 930 560.6L943.5 603.3 924.1 593.5 917.9 574.6C917.3 572.9 915.6 572 913.9 572.5 912.2 573.1 911.3 574.8 911.9 576.5L915.5 589.2 901.3 581.9C899.5 581.1 897.8 581.6 897 583.3 896.1 585 896.7 586.8 898.4 587.6L912.6 594.9 900.6 598.8C898.9 599.4 898 601.1 898.6 602.8S900.8 605.4 902.6 604.8L920.6 598.9 940.6 609 898.5 622.8C896.7 623.4 895.9 625.1 896.4 626.8 897 628.6 898.7 629.4 900.4 628.9L948.6 613.1 965.2 621.5 948.8 626.8C947.1 627.4 946.2 629.1 946.8 630.8 947.3 632.6 949.1 633.4 950.8 632.9L973.1 625.5 989.1 633.6 974.2 643.3 950.7 638.6C949.3 638.6 947.3 639.7 947.3 641.1 947 643.1 947.9 644.3 949.6 645.2L966.4 648.7 951.5 658.3 901.5 648C899.5 647.7 898.3 648.6 897.4 650.3 897.1 652.3 898.6 653.7 899.7 654.3L943.7 663.7 924.8 675.6 905.9 671.8C904.2 671 902.8 672.4 901.9 674.1 901.9 675.5 903 677.5 905 677.8L917.3 680.5 904.1 689.6C902.4 690.1 902.1 692.1 903.2 694.1 904.1 695.3 906.1 695.6 907.2 694.7L921 685.9 918.1 698.8C917.8 700.8 919.2 702.2 920.6 702.2 922.3 703.1 923.5 702.3 924.1 701.1 924.4 700.5 924.4 700.5 924.7 700L928.5 681.1 947.4 669.2 938.3 712.6C937.5 714.4 938.9 715.8 940.6 716.7 942 716.7 943.2 715.8 943.7 714.7 944 714.1 944 714.1 944 714.1L955.2 663.8 970.1 654.1 966.6 671C966.3 673 967.2 674.2 968.9 675 970.3 675 972 674.5 972.6 673.3 972.9 672.8 972.9 672.8 973.2 672.2L977.9 648.7 992.8 639.1 993.9 656.8 978.3 674.8C976.9 676.2 977.1 678.5 978 679.7 979.7 680.5 981.7 680.8 982.6 679.1L994.1 666.3 995.7 684.3 961.2 722.8C960 723.6 960.3 725.9 961.1 727.1 962.9 727.9 964.9 728.2 966.3 726.8L996 693.8 997 715.8 984 730.1C982.6 731.5 982.9 733.8 984.6 734.6 985.4 735.8 987.4 736.1 988.9 734.7L997.5 724.7 998.6 741C998.5 742.5 1000 743.9 1002 744.2 1002.8 743.9 1004 743.1 1004.6 741.9 1004.6 741.9 1004.9 741.3 1005.1 740.8L1004.1 724.5 1014.1 733.1C1014.9 734.2 1017.2 734 1018.3 733.1 1018.6 732.5 1018.6 732.5 1018.6 732.5 1019.5 730.8 1018.9 729.1 1017.8 728.5L1003.6 715.6 1002 693.2 1035.6 723.2C1037.3 724.1 1038.7 724.1 1040.2 722.6 1040.2 722.6 1040.4 722.1 1040.4 722.1 1041 720.9 1041 719.5 1039.6 718.1L1001.7 683.8 1000.7 666 1013.5 677.6C1015.2 678.4 1017.2 678.7 1018.1 677 1018.7 677.3 1018.9 676.7 1018.9 676.7 1019.5 675.6 1019 673.9 1018.1 672.7L1000.2 657.2 999.4 638.8 1015.4 646.9 1022.7 669.3C1023.3 671 1025.6 672.2 1027.3 671.6 1028.4 670.8 1029.3 669.1 1029.3 667.6L1023.4 651 1039.9 659.4 1055.7 707.6C1056.3 709.3 1058 710.2 1059.7 709.6 1061.4 709 1062.3 707.3 1061.7 705.6L1047.9 663.4 1067.9 673.6 1073.8 691.6C1074.4 693.4 1076.1 694.2 1077.8 693.7S1080.4 691.4 1079.8 689.7L1075.9 677.6 1090.2 684.9C1091.9 685.7 1093.6 685.2 1094.5 683.4 1095.3 681.7 1094.8 680 1093.1 679.1L1078.8 671.9 1091.1 667.4C1092 667.1 1092.8 666.8 1093.1 666.3 1093.4 665.7 1093.4 664.3 1093.1 663.4 1092.6 661.7 1090.9 660.8 1089.2 661.4L1070.8 667.9 1050.8 657.7 1093.3 643.4C1094.1 643.1 1095 642.8 1095.3 642.2 1095.6 641.7 1095.6 640.2 1095.3 639.4 1094.7 637.7 1093 636.8 1091.3 637.3L1042.8 653.7 1026.3 645.3 1043.2 640.2C1044 640 1044.6 638.8 1044.9 638.2 1045.2 637.7 1045.5 637.1 1045.2 636.2 1044.7 634.5 1042.4 633.4 1041.2 634.2L1018.3 641.2 1002.3 633.1 1017.5 622.9 1040.7 628.2C1042.1 628.2 1043.8 627.6 1044.4 626.5 1044.7 625.9 1044.7 625.9 1044.1 625.6 1045 623.9 1043.9 621.9 1041.9 621.6L1025 618.1 1040.2 607.9 1090.5 619C1092 619 1093.1 618.2 1093.7 617 1094 616.5 1094 616.5 1094 616.5 1094.3 614.5 1093.7 612.7 1091.7 612.4L1047.7 603 1066.6 591.1 1085.5 595C1087.5 595.3 1088.7 594.4 1089.2 593.3 1089.2 593.3 1089.5 592.7 1089.5 592.7 1089.8 590.7 1088.4 589.2 1087.3 588.7L1074.1 586.3 1087.9 577.5C1088.2 576.9 1088.5 576.4 1088.8 575.8 1089.1 575.2 1089.1 573.8 1088.8 572.9 1087.4 571.5 1085.6 570.6 1084.2 572.1L1070.4 580.8 1073.4 568C1073.6 566 1072.2 564.5 1071.1 564 1069.1 563.7 1067.6 565.1 1066.8 566.8L1063 585.7 1044.6 597.9 1053.7 554.4C1054 552.4 1052.8 550.4 1051.4 550.4 1049.4 550.1 1047.7 550.7 1047.4 552.7Z" fill="rgba(51, 121, 194, 0.58)"></path><path d="M1183.9 682.3L1185.7 672.4 1191 676.6C1191.5 677.1 1192.5 677.1 1193.3 676.5 1193.7 675.6 1193.7 674.6 1193.1 674.1L1186.3 668.5 1188.1 659.3 1201.9 671C1202.8 671.6 1203.8 671.6 1204.2 670.8 1205 670.2 1204.9 669.1 1204 668.5L1188.8 655.6 1190.2 647.3 1208.5 640.6 1214.3 645.3 1210.3 666.2C1210.4 666.5 1210.5 666.8 1210.7 667.1 1210.8 667.4 1211.3 667.9 1211.7 668 1212.8 668.3 1213.6 667.7 1213.6 666.7L1217.2 647.6 1224.1 653.6 1222.6 663.4C1222.3 663.5 1222.4 663.8 1222.5 664.1 1222.7 664.7 1223.3 665.2 1224 665.3 1224.7 665.4 1225.5 664.7 1225.9 663.9L1227 656 1235.9 663.3C1236.4 663.8 1237.4 663.8 1238.2 663.1 1238.6 662.3 1238.5 661.3 1238 660.8L1229.7 654 1236 651.7C1236.9 651.3 1237.2 650.2 1237 649.6 1236.7 648.7 1235.7 648 1234.8 648.4L1226.7 651.3 1219.8 645.3 1236.6 639.2C1237.5 638.9 1237.9 638.1 1237.6 637.1 1237.2 636.2 1236.4 635.9 1235.5 636.2L1216.9 643 1210.7 638.1 1214.2 618.8 1221.1 616.3 1236.7 629.3C1237.4 630.1 1238.7 629.9 1239 629.1 1239.8 628.5 1239.5 627.6 1238.9 626.8L1224.7 614.9 1233.4 611.8 1240.3 617.7C1240.9 618.2 1242.2 618.1 1242.7 617.6S1243 615.7 1242.4 614.9L1237 610.4 1247.5 606.6C1248.4 606.3 1248.7 605.1 1248.4 604.2 1248.1 603.6 1247.2 603 1246.3 603.3L1235.8 607.1 1236.9 599.9C1237 599.2 1236.7 598.3 1235.5 598 1234.8 597.9 1233.7 598.7 1233.7 599.4L1232.2 608.4 1223.5 611.6 1226.7 593.4C1226.7 592.4 1226.3 591.5 1225.2 591.2 1224.5 591.2 1223.4 591.9 1223.3 592.6L1219.9 612.9 1212.9 615.5 1197.8 602.9 1199.4 595.2 1218.1 588.4C1219 588.1 1219.3 587.2 1219 586.3 1218.7 585.4 1217.8 584.8 1216.9 585.1L1200 591.2 1201.5 582.2 1209.6 579.2C1210.5 578.9 1210.9 578.1 1210.6 577.2 1210.2 576.3 1209.4 575.9 1208.5 576.2L1202.2 578.5 1204.1 567.9C1204.2 567.2 1203.5 566.1 1202.7 566.1 1201.7 566.1 1200.8 566.4 1200.9 567.4L1198.7 578.4 1192.8 573.4C1192 573 1191 573.1 1190.5 573.6 1190 574.1 1189.9 574.8 1190.2 575.4 1190.2 575.4 1190.3 575.7 1190.7 575.9L1198.1 582.4 1196.7 591.4 1181.7 579.2C1181 578.4 1180 578.4 1179.3 579.4 1179.1 579.8 1179 580.2 1179.2 580.8 1179.3 581.1 1179.4 581.4 1179.5 581.7L1196 595.1 1194.6 602.4 1176.2 609.1 1169.8 603.6 1173.2 584C1173.5 582.9 1172.8 582.1 1171.8 582.1 1171 581.7 1170.2 582.4 1169.9 583.5L1166.9 601.3 1159.6 595.4 1161.2 586.7C1161.3 585.9 1160.7 585.2 1159.8 584.8 1158.8 584.8 1157.9 585.1 1158 586.1L1156.6 592.8 1148.9 586.4C1148.2 585.6 1147.3 585.9 1146.5 586.6 1146.3 587 1146.3 587.7 1146.5 588.3 1146.5 588.3 1146.6 588.6 1146.7 588.9L1155 595.7 1147.5 598.5C1146.9 598.7 1146.2 599.6 1146.5 600.5 1146.9 601.4 1148 601.7 1148.6 601.5L1157.9 598.1 1165.1 604 1146.8 610.7C1145.9 611 1145.6 612.1 1146 613S1147.1 614.3 1148 614L1168.2 606.6 1174.1 611.6 1170.6 630.9 1162.7 633.8 1147 620.5C1146.2 620.1 1145.2 620.1 1144.4 620.7 1144.2 621.2 1144.1 621.9 1144.3 622.5 1144.4 622.8 1144.5 623.1 1144.9 623.3L1159.1 635.1 1150.4 638.3 1143.2 632.4C1142.7 631.9 1141.6 632 1140.8 632.6 1140.5 633.4 1140.5 634.4 1141 634.9L1146.8 639.6 1137.2 643.1C1136.6 643.3 1136 644.6 1136.2 645.2 1136.6 646.1 1137.8 646.6 1138.4 646.4L1148 642.9 1146.5 649.9C1146.6 650.2 1146.7 650.5 1146.8 650.8 1147 651.4 1147.6 651.9 1148 652.1 1149 652.1 1149.8 651.5 1150.2 650.6L1151.6 641.6 1160.3 638.4 1157.1 656.6C1156.8 657.7 1157.5 658.5 1158.2 658.6 1159.3 658.9 1160.1 658.3 1160.5 657.4L1164 637.1 1171.8 634.2 1186.9 646.8 1185.6 654.4 1165.5 661.8C1164.6 662.1 1164.2 662.9 1164.5 663.8 1164.8 664.7 1165.7 665.1 1166.6 664.8L1184.9 658.1 1183.1 667.2 1173.8 670.6C1173.2 670.9 1172.6 672.1 1173 673 1173.3 673.9 1174.4 674.2 1175 673.9L1182.5 671.2 1180.6 681.8C1180.7 682.1 1180.7 682.1 1180.8 682.4 1181 683 1181.6 683.5 1182 683.7 1183 683.6 1183.8 683 1183.9 682.3ZM1175.4 632.9L1173.8 631.5 1174.2 629.6 1177 614 1177.3 612.1 1179.1 611.5 1193.9 606.1 1195.7 605.4 1197.1 606.6 1209.3 616.8 1210.8 618 1210.5 620.1 1207.6 635.5 1207.4 637.6 1205.6 638.3 1190.9 643.6 1189.1 644.3 1187.5 642.8 1175.4 632.9Z" fill="rgba(51, 121, 194, 0.58)"></path><path d="M921 872.9L901 882.8 901.3 869.3C901.4 867.8 900.2 866.3 898.2 865.8 896.4 866.2 894.9 867.4 895.2 869.2L894.3 886.1 879 894.5 881.1 859.3C880.7 857.5 879.4 856 878 855.8 875.7 855.8 874.1 857.1 874.5 858.9L872.3 897.8 848.5 909.9 853.5 879.6 828 896.7 829.2 870.1 863.7 851.9C864.3 852.3 864.6 851.8 864.9 851.2 865.6 850.1 865.8 848.7 865.1 847.5 864.3 846.3 862.4 845.8 860.6 846.1L829.4 862.6 830.8 845.2 845.7 837.3C846.6 837.1 847 836.6 847.3 836.1 847.6 835.5 847.8 834.1 847.1 832.9 846.3 831.6 844.4 831.1 843.2 831.9L831 837.7 831.7 815.4C832.2 813.4 830.6 812.4 828.6 811.9 827.2 811.7 825.6 813 825.7 815.3L824.4 837.3 813.1 830C811.5 829 809.4 829.9 808.7 831 807.7 832.6 808 834.4 809.7 835.4L824.2 844.8 822.9 862.2 793.8 843.5C792.2 842.4 790.4 842.8 789.4 844.4 788.7 845.5 788.7 847.8 790.3 848.9L822.6 869.6 821.5 896.3 797.9 877.3 799.8 907.5 777.2 892.9 779.1 854.5C779 852.2 777.4 851.2 776 851 774.6 850.9 773 852.2 772.5 854.1L771.3 889.1 756.8 879.8 757.2 862.5C757.7 860.6 756.4 859 754.1 859 752.7 858.9 751.1 860.1 751.2 862.5L750.3 875.6 731.5 863.5C729.8 862.4 728.1 862.8 727 864.4S726.4 867.8 728 868.9L746.8 881 735.2 887.2C733.1 888.1 732.6 890.1 733.3 891.3 734.3 893.4 736.2 893.9 737.8 892.7L753.3 885.1 767.8 894.5 736.5 910.1C734.9 911.4 734.4 913.3 735.1 914.5 736 916.7 738 917.2 739.6 915.9L773.7 898.3 796.3 912.9 768.1 923.6 795.1 937.2 771.4 949.3 739.1 928.5C737.5 927.5 735.3 928.4 734.7 929.5 733.6 931.1 734 932.9 735.6 933.9L765.2 952.9 749.4 961 734.8 951.7C733.2 950.6 731.4 951 730.4 952.6 729.7 953.7 729.8 956 731.4 957L742.7 964.3 723.1 974.6C721 975.5 720.5 977.4 721.8 979 722.5 980.3 724.1 981.3 725.7 980L745.8 970.1 745.5 983.6C745.3 985 746.6 986.6 748 986.8 749.4 986.9 750.7 986.2 751 985.7 751.3 985.1 751.7 984.6 751.5 983.7L752.5 966.8 767.8 958.4 765.7 993.6C766.1 995.4 767.3 996.9 768.8 997.1 770.2 997.2 771.4 996.5 772.1 995.4 772.5 994.9 772.5 994.9 772.3 994L774.5 955.1 798.2 943 793.2 973.3 818.7 956.2 817.5 982.8 783 1000.9C781.8 1001.7 780.8 1003.3 781.7 1005.4 782.4 1006.6 784.4 1007.1 786.1 1006.8L817.3 990.3 816 1007.7 801 1015.6C799.2 1016 798.7 1017.9 799.7 1020 800.4 1021.3 802.4 1021.8 804.1 1021.4L815.7 1015.2 815 1037.5C814.5 1039.5 816.1 1040.5 818.1 1041 819 1040.8 820.2 1040.1 820.6 1039.6 820.9 1039 821.3 1038.5 821.1 1037.6L822.3 1015.6 833.6 1022.9C835.2 1023.9 837.3 1023 838 1021.9L838 1021.9C839.1 1020.3 838.7 1018.5 837.1 1017.5L822.5 1008.1 823.9 990.7 852.9 1009.4C854.5 1010.4 856.3 1010.1 857.3 1008.4S858 1005.1 856.4 1004L824.1 983.2 825.3 956.6 848.8 975.6 846.9 945.4 869.5 960 867.7 998.3C867.7 1000.6 869.3 1001.7 870.7 1001.8 872.2 1002 873.7 1000.7 874.2 998.8L876 964.1 890 973.1 889.5 990.4C889 992.3 890.3 993.9 892.6 993.9 894 994 895.6 992.7 896.1 990.8L896.4 977.3 915.3 989.4C916.9 990.4 918.7 990.1 919.7 988.5S920.4 985.1 918.7 984L899.9 971.9 911.5 965.7C912.4 965.5 912.7 965 913.1 964.4 913.8 963.3 913.6 962.5 913.4 961.6 912.5 959.5 910.5 959 908.9 960.2L893.4 967.7 878.9 958.4 910.3 942.8C910.6 942.3 911 941.7 911.3 941.2 912 940.1 911.8 939.2 911.6 938.3 910.7 936.2 908.7 935.7 907.2 937L873 954.6 850.4 940 878.6 929.3 851.6 915.7 875.4 903.6 907.7 924.4C909.3 925.4 911.4 924.5 912.1 923.4 913.1 921.8 912.7 920 911.1 919L882.1 900.3 897.4 891.9 911.9 901.2C913.5 902.3 915.3 901.9 916.3 900.3S917 896.9 915.4 895.9L904.1 888.6 923.6 878.3C924.5 878.1 924.8 877.6 925.2 877.1 925.5 876.5 925.7 875.1 925 873.9 924.2 872.6 922.6 871.6 921 872.9ZM863.2 928.5L840 937.2 841.7 961.8 822.1 946.2 801.9 959.8 805.4 935.4 783.6 924.4 806.7 915.7 805 891.1 824.1 906.4 844.8 893.1 840.8 917.1 863.2 928.5Z" fill="rgba(51, 121, 194, 0.58)"></path><path d="M117.1 400.3L143 370.1 153.9 369 167.8 389.2 163.2 399.4 125.6 412.5C125.2 412.8 125.2 412.8 124.8 413 124 413.6 123.5 414.5 123.9 416 124.7 417.2 125.7 417.7 127.1 417.3L160 405.7 152.6 421.2 138.2 426.5C138.2 426.5 137.8 426.8 137.8 426.8 137 427.4 136.5 428.3 136.9 429.8 137.1 430.8 138.7 431.5 140.1 431L149.7 427.9 144.1 439.4C143.6 440.3 144 441.8 145.3 442.7S148 442.5 149 441.3L154.1 430.1 157.6 439.4C158 440.9 159.6 441.5 161.1 441.1 161.9 440.5 162.8 439.3 162.3 437.9L157.1 423.4 164.8 407.6 176.4 440.4C176.8 441.9 178.4 442.5 179.5 442.4 180.7 441.5 181.6 440.3 181.1 438.9L167.6 401.5 172.6 391.1 196.4 389.2 203 398.7 196.2 437.8C195.9 439.2 196.7 440.3 198.1 440.6S200.6 440 200.8 438.7L206.8 404.2 216.9 418.8 214.2 433.5C214 434.9 214.8 436.1 216.4 436.7S218.9 436.1 219.2 434.8L220.7 424.4 228.1 435C228.9 436.2 230.6 436.2 231.8 435.4 233 434.6 233.2 433.2 232.4 432L225.1 421.4 235.1 423.2C236.7 423.8 237.9 423 237.8 421.3 238.1 420 237.3 418.8 235.9 418.5L221.2 415.8 211.1 401.2 245.5 407.8C246.8 408.1 248.4 407 248.6 405.7S248.1 403.1 246.7 402.9L207.3 395.7 200.8 386.2 211.3 364.3 222.5 363.6 252.6 389.5C253.8 390.4 255.3 390 256.5 389.2 257.4 387.9 257 386.5 256.1 385.3L229.5 362.8 246.7 361.5 258.3 371.6C259.5 372.5 261 372 262.2 371.2 262.7 370.3 262.7 368.6 261.4 367.6L254 361.1 266.6 360C267.7 359.8 268.6 358.6 268.9 357.3 268.4 355.8 267.2 354.9 266.2 355L253.5 356.2 260.2 348.1C260.7 347.1 260.7 345.4 259.7 344.9 258.9 343.7 257.9 343.9 256.7 344.7 256.7 344.7 256.3 345 256.3 345L246.2 356.6 229.1 357.9 251.5 331.3C252.4 330.1 252.7 328.8 251.5 327.9 250.3 326.9 249.2 327.1 248.4 327.6 248 327.9 248 327.9 248 327.9L222 358.7 210.8 359.4 196.9 339.3 201.8 329.5 239.5 315.7C240.6 315.5 241.2 313.9 241.1 312.9 240.7 311.4 239.1 310.8 237.6 311.2L204.8 322.8 212.1 307.2 226.5 301.9C228 301.5 228.9 300.3 228.1 299.1 227.7 297.6 226.1 297 225 297.1L215.3 300.9 220.9 289.5C221.1 288.2 220.7 286.7 219.5 285.8 218.8 285.7 217.7 285.8 217 286.4 216.6 286.6 216.6 286.6 216.4 287.3L210.9 298.7 207.1 289.1C206.7 287.6 205.4 287.3 204.3 287.5 203.9 287.8 203.9 287.8 203.5 288 202.7 288.6 202.2 289.5 202.4 290.6L207.7 305 200.3 320.6 188.8 287.8C187.9 286.6 186.7 285.7 185.5 286.5 184.9 286.4 184.9 286.4 184.5 286.6 183.7 287.2 183.4 288.5 183.6 289.6L197.4 327.3 192.5 337.1 168.3 339.2 162 330.1 169.2 290.7C169.5 289.4 168.4 287.8 167 287.6S164.1 288.4 163.9 289.8L157.9 324.2 148.1 310 150.5 294.9C150.8 293.6 150 292.4 148.6 292.2 147.3 291.9 146.1 292.7 145.9 294.1L144 304.1 136.7 293.4C136.1 292.6 134.5 292 133.3 292.8 132.1 293.6 131.8 295.6 132.3 296.4L139.7 307.1 129.7 305.2C129 305.1 128.3 305 127.9 305.3 127.1 305.8 127 306.5 126.9 307.2 126.7 308.5 127.5 309.7 128.8 309.9L143.8 313 153.6 327.2 119.3 320.6C118.6 320.5 118.2 320.7 117.4 321.3 117 321.6 116.6 321.8 116.5 322.5 116.3 323.8 117.3 325.4 118.7 325.7L157.7 333.1 164 342.2 153.8 363.8 142.5 365.2 112.1 339C111.2 338.4 109.8 338.2 109 338.7 108.7 339 108.7 339 108.9 339.4 107.7 340.2 107.8 342 109 342.9L135.6 365.3 118 367 106.4 356.9C105.5 356.4 104.4 356.5 103.6 357.1 103.6 357.1 103.2 357.3 103.2 357.3 102 358.2 102.1 359.9 103.3 360.8L111.4 367.5 98.8 368.6C98.1 368.5 97.7 368.8 97.3 369 96.5 369.6 96 370.5 96.3 370.9 96.3 372.6 97.5 373.6 98.8 373.8L111.5 372.7 104.9 380.1C104 381.3 104.1 383 105.3 383.9 106.2 384.5 107.9 384.4 108.5 383.5L118.5 371.9 135.7 370.5 113.2 397.1C112.3 398.3 112.7 399.8 113.5 401 114.5 401.5 116.2 401.5 117.1 400.3ZM170.5 383.8L159.9 368.4 158.2 366 159.4 363.5 167.2 347 168.8 344.1 171.6 344 189.8 342.5 192.6 342.3 194.2 344.7 204.9 360.1 206.5 362.4 205.3 365 197.5 381.5 196.3 384 193.2 384.5 174.9 386 172.1 386.2 170.5 383.8Z" fill="rgba(51, 121, 194, 0.58)"></path><path d="M218.7 1010L233.6 973.1 266.4 959.4 261.9 994.6 230.2 1018.8C230.2 1018.8 229.9 1019.1 229.9 1019.1 229.3 1019.9 229.5 1021.3 230 1022.2 230.8 1023.5 232.5 1023.6 233.4 1022.4L261.1 1001.3 258.9 1018.3 246.8 1027.8C246.8 1027.8 246.5 1028.2 246.5 1028.2 245.9 1029 246.1 1030.3 246.6 1031.3 247.4 1032.5 249.2 1032.6 250 1031.5L258.5 1025.2 256.7 1037.8C256.5 1038.9 257.8 1040.4 258.8 1040.6 260.2 1041.1 261.4 1039.6 261.6 1038.5L263.3 1025.9 269.6 1034.4C270.5 1035.6 272.2 1035.7 273.1 1034.6 274.3 1033.7 274.4 1032 273.3 1031.1L263.8 1019 266.3 1002.3 287.5 1029.9C288.4 1031.1 290.1 1031.3 291 1030.1 292.2 1029.3 292.3 1027.5 291.2 1026.7L267.1 995 271.6 959.8 300.2 981.6 305.5 1021.3C305.7 1022.6 306.9 1023.5 308.2 1023.3 309.5 1023.2 310.4 1022 310.2 1020.7L305.5 985.7 319.3 996.2 321.3 1011C321.4 1012.3 322.6 1013.2 323.9 1013 325.3 1012.8 326.2 1011.7 326 1010.3L324.6 1000.2 335.3 1008.4C336.2 1009.7 337.8 1009.1 338.7 1007.9 339.5 1006.8 339.4 1005.5 338.2 1004.6L328.3 997 338.4 995.7C339.7 995.5 340.6 994.3 340.4 993S339.1 990.8 337.7 990.9L322.9 992.9 309.2 982.5 344.2 977.7C345.5 977.6 346.4 976.4 346.2 975.1 346 973.7 344.9 972.9 343.6 973L303.9 978.4 275.6 956.8 308.4 943.2 344.3 957.9C345.7 958.4 346.9 957.5 347.8 956.4 348.3 954.9 347.5 953.7 346.3 952.8L314.1 939.7 330 933.1 344.1 939.1C345.6 939.5 346.8 938.7 347.7 937.6 348.2 936.1 347.3 934.9 346.6 934.3L336.8 930.5 348.5 925.5C349.4 925 350.6 923.5 349.7 922.2 348.9 921 347.7 920.1 346.5 920.9L334.8 925.9 338.6 916.2C339.1 914.7 338.3 913.5 337.5 912.9 336.5 912.7 335.1 912.9 334.5 913.6 334.5 913.6 334.2 914 334.2 914L328.3 928.2 312.4 934.8 325.5 902.5C326 901.1 325.1 899.8 324.4 899.2 323.3 899 322 899.2 321.4 900 321.4 900 321.1 900.4 321.1 900.4L306.2 937.3 273.5 951 278 915.8 309.7 891.6C310.9 890.8 311 889.1 309.9 888.2 309 886.9 307.3 886.8 306.4 888L278.8 909.1 281 892.1 293 882.6C294.3 881.7 294.4 880 293.3 879.1 292.4 877.9 290.7 877.8 289.8 878.9L281.4 885.2 283.1 872.6C283.3 871.5 282.1 870 281 869.8 280 869.6 279 870.1 278.4 870.8 278.1 871.2 277.9 871.6 277.9 872.3L276.2 884.8 269.9 876.4C269.1 875.2 267.4 875.1 266.5 876.2 266.5 876.2 266.2 876.6 266.2 876.6 265.6 877.4 265.8 878.7 266.3 879.7L275.8 891.7 273.6 908.8 252.4 881.2C251.6 879.9 249.9 879.8 249 881 249 881 248.7 881.3 248.7 881.3 248.1 882.1 248.3 883.5 248.8 884.4L272.9 916.1 268.4 951.3 240.1 929.8 234.8 890.1C234.6 888.7 233.5 887.8 232.1 888 230.8 888.2 229.9 889.4 230.1 890.7L234.4 925.4 220.7 914.9 218.7 900.1C218.5 898.8 217.4 897.9 216 898.1S213.8 899.4 214 900.7L215.3 910.8 205.4 903.3C204.3 902.4 202.9 902.6 202 903.7 201.2 904.9 201.3 906.2 202.5 907.1L212.4 914.6 202.3 916C201.7 916.1 201 916.2 200.4 916.9S199.9 918.4 200 919.1C200.2 920.4 201.3 921.3 202.7 921.1L217.5 919.1 231.2 929.6 196.2 934.3C195.5 934.4 194.9 934.5 194.3 935.2 194 935.6 193.8 936.7 193.9 937.3 194.1 938.7 195.2 939.6 196.6 939.4L236.3 934 264.5 955.6 231.7 969.2 194.8 954.3C193.8 954.1 192.4 954.3 191.8 955.1 191.8 955.1 191.5 955.5 191.5 955.5 191 956.9 191.9 958.2 192.7 958.7L224.9 971.9 209 978.5 194.9 972.5C193.8 972.3 192.5 972.5 191.9 973.2 191.9 973.2 191.6 973.6 191.6 973.6 191.1 975.1 191.9 976.3 192.7 976.9L202.5 980.7 190.8 985.7C190.5 986.1 189.8 986.2 189.6 986.6 189 987.3 188.8 988.4 189.2 989.3 190.1 990.6 191.2 991.5 192.5 990.6L204.2 985.6 200.3 995.4C199.8 996.8 200.7 998.1 201.5 998.7 202.9 999.1 204.1 998.3 204.7 997.5L210.7 983.4 226.6 976.8 213.5 1009C213 1010.5 213.8 1011.7 214.6 1012.3 216.6 1012 218.2 1011.5 218.7 1010Z" fill="rgba(51, 121, 194, 0.58)"></path><path d="M1385.9 286.4L1404.9 328.7 1400.6 340.7 1372.5 345.4 1364 335.4 1368.8 289.2C1368.7 288.7 1368.7 288.7 1368.6 288.1 1368.4 287 1367.7 286 1366 285.7 1364.3 286 1363.3 286.7 1363 288.5L1358.9 328.9 1346.1 313.4 1347.7 295.6C1347.7 295.6 1347.6 295 1347.6 295 1347.4 293.9 1346.7 292.9 1345 292.6 1343.8 292.2 1342.3 293.6 1342 295.4L1340.5 307 1331.2 295.5C1330.5 294.4 1328.8 294.2 1327.2 295S1326 298 1326.8 299.6L1336 310.6 1324.5 309.6C1322.8 309.4 1321.3 310.7 1321 312.5 1321.2 313.6 1322 315.2 1323.8 315.4L1341.6 317 1354.5 333 1314.1 329C1312.3 328.7 1310.9 330.1 1310.5 331.3 1310.8 332.9 1311.6 334.5 1313.4 334.8L1359.5 339 1368 349.5 1358.2 375.6 1344.9 377.8 1307 351.1C1305.7 350.2 1304 350.5 1303.1 351.8S1302.5 354.7 1303.8 355.6L1337.2 379.1 1316.7 382.4 1302.6 372.3C1301.3 371.4 1299.6 371.7 1298.1 373S1297.5 376 1298.8 376.9L1309 383.7 1294.1 386.2C1292.4 386.5 1291.6 388.3 1291.9 390 1292.1 391.6 1293.4 392.6 1295.1 392.3L1310 389.8 1303.1 399.5C1301.6 400.8 1301.9 402.5 1303.7 403.3 1305 404.3 1306.7 404 1307.6 402.7L1317.7 388.5 1338.2 385.1 1314.1 418.1C1313.2 419.4 1313.6 421.6 1314.9 422.5S1317.8 423.1 1318.7 421.9L1345.9 383.9 1359.2 381.7 1377 403.7 1372.2 415.8 1329.9 434.7C1328.4 435.6 1328.1 437.3 1328.4 439 1329.2 440.5 1331 440.8 1332.6 440.6L1369.5 423.6 1362.4 442.4 1346 449.7C1344.5 450.5 1344.2 452.3 1344.5 453.9 1345.2 454.9 1347.1 455.8 1348.6 454.9L1359.2 450.3 1354.1 464.2C1353.8 465.4 1354.6 467 1355.9 467.9 1357.6 468.2 1359.2 467.4 1359.6 466.2L1364.6 452.3 1369.9 463.3C1370.6 464.3 1372.5 465.2 1373.5 464.4 1375.1 464.2 1375.5 463 1375.2 461.3 1375.2 461.3 1375.1 460.7 1375.1 460.7L1367.9 444.4 1375 425.6 1391.9 462.5C1392.7 464.1 1394 465 1395.6 464.2 1397.1 463.3 1397.5 462.1 1397.3 461 1397.2 460.5 1397.2 460.5 1397.2 460.5L1377.6 417.8 1382.4 405.6 1410.6 400.9 1418.5 411 1414.4 457.6C1414 458.8 1415.4 460.3 1416.6 460.7 1418.3 461 1419.8 459.6 1420.1 457.8L1424.1 417.4 1436.9 432.9 1435.3 450.8C1435.1 452.5 1435.9 454.1 1437.6 453.8 1439.3 454.1 1440.8 452.7 1441.1 451.5L1442 439.4 1451.3 451C1452.6 451.9 1454.3 452.1 1455.9 451.3 1456.3 450.7 1456.7 449.5 1456.5 448.4 1456.4 447.8 1456.4 447.8 1455.8 447.4L1446.5 435.8 1458.6 436.7C1460.3 437 1461.2 435.7 1461.6 434.5 1461.5 433.9 1461.5 433.9 1461.4 433.4 1461.2 432.3 1460.5 431.3 1459.3 430.9L1441.4 429.3 1428.7 413.8 1469.1 417.9C1470.7 417.6 1472.3 416.8 1472 415.2 1472.5 414.5 1472.5 414.5 1472.4 414 1472.2 412.9 1470.9 411.9 1469.7 411.6L1423 407.4 1415.1 397.3 1424.9 370.7 1437.6 368.6 1475.6 395.8C1476.9 396.7 1479.1 396.4 1480 395.1S1480.6 391.6 1479.3 390.7L1445.9 367.3 1465.8 364 1480.5 374C1481.8 374.9 1483.5 374.7 1484.4 373.4 1485.3 372.1 1485 370.4 1483.7 369.5L1474.1 362.6 1489 360.1C1490.1 359.9 1491.6 358.5 1491.3 356.9 1491 355.2 1489.1 353.9 1488 354L1473.1 356.5 1480 346.8C1480.4 346.2 1480.9 345.6 1480.8 345 1480.6 343.9 1480 343.4 1479.3 343 1478.1 342.1 1476.4 342.3 1475.5 343.6L1464.8 357.9 1444.9 361.2 1468.9 328.2C1469.4 327.6 1469.3 327 1469.1 325.9 1469 325.4 1469 324.8 1468.3 324.4 1467 323.5 1464.8 323.8 1463.9 325.1L1436.6 362.6 1423.9 364.7 1406.1 343.2 1410.3 330.6 1453.1 311.6C1454.1 310.8 1455.1 309.5 1454.9 308.4 1454.8 307.9 1454.8 307.9 1454.2 308 1454 306.3 1452.1 305.5 1450.6 306.3L1413.6 323.2 1420.6 303.9 1437 296.6C1438 295.9 1438.4 294.7 1438.2 293.6 1438.2 293.6 1438.1 293.1 1438.1 293.1 1437.9 291.4 1436 290.6 1434.5 291.4L1423.4 296.6 1428.5 282.7C1428.9 282.1 1428.8 281.5 1428.8 281 1428.6 279.9 1427.8 278.9 1427.3 279 1425.4 278.1 1423.9 279 1423 280.2L1417.9 294.1 1413.3 283.6C1412.5 282 1410.6 281.2 1409 282 1408 282.7 1407.2 284.6 1407.9 285.6L1415.2 302 1408.1 320.7 1391.2 283.8C1390.4 282.2 1388.6 282 1387 282.2 1385.9 283 1385.1 284.8 1385.9 286.4ZM1376.8 350.9L1398.3 347.3 1401.6 346.8 1403.8 349.3 1417.3 365.8 1419.5 368.8 1418.3 371.8 1410.8 391.8 1409.6 394.9 1406.3 395.4 1384.7 399 1381.4 399.5 1379.3 397 1365.8 380.6 1363.7 378.1 1364.8 374.5 1372.3 354.5 1373.5 351.5 1376.8 350.9Z" fill="rgba(51, 121, 194, 0.58)"></path></g><defs><mask id="SvgjsMask1033"><rect width="1440" height="1000" fill="#ffffff"></rect></mask><filter id="SvgjsFilter1034"><feGaussianBlur stdDeviation="1"></feGaussianBlur></filter></defs></svg>